<?xml version="1.0" encoding="UTF-8"?>
<svg version="1.1" xmlns="http://www.w3.org/2000/svg" width="2000" height="233">
<path d="M0 0 C-0.29828079 11.76853316 -4.70275375 22.0998352 -10.3125 32.25 C-10.65474609 32.87471191 -10.99699219 33.49942383 -11.34960938 34.14306641 C-16.60574398 43.28883601 -23.46372709 50.59890731 -31 57.87890625 C-31.72531418 58.58161652 -32.45062836 59.28432678 -33.19792175 60.0083313 C-36.2329103 62.9427522 -39.27010698 65.87364728 -42.34033203 68.77124023 C-44.60185867 70.91162216 -46.83361524 73.07962049 -49.0625 75.25390625 C-49.75923828 75.89791885 -50.45597656 76.54193146 -51.17382812 77.20545959 C-54.49883324 80.49309533 -56.41951368 82.69622789 -56.47460938 87.49169922 C-56.3492456 88.99756129 -56.19179091 90.50114947 -56 92 C-55.86368164 93.95981812 -55.86368164 93.95981812 -55.72460938 95.95922852 C-55.59892578 97.25272217 -55.47324219 98.54621582 -55.34375 99.87890625 C-55.2438678 100.92521461 -55.2438678 100.92521461 -55.14196777 101.99266052 C-54.93196403 104.18301374 -54.71609944 106.3727407 -54.5 108.5625 C-54.35507742 110.0631133 -54.21054299 111.56376414 -54.06640625 113.06445312 C-53.71541203 116.71007913 -53.35916568 120.35516889 -53 124 C-52.34 124 -51.68 124 -51 124 C-50.34 123.34 -49.68 122.68 -49 122 C-46.17331426 122.18844572 -44.93080185 123.05423639 -42.6875 124.8125 C-41 127 -41 127 -41.10546875 128.890625 C-42.3260806 131.7689237 -44.203027 132.98417503 -46.625 134.9375 C-49.73110999 137.87186616 -50.91201523 139.1757216 -51.37109375 143.4765625 C-51.0924453 146.71452809 -50.67295987 149.82186103 -50 153 C-49.09701172 152.68675781 -49.09701172 152.68675781 -48.17578125 152.3671875 C-47.45777344 152.24601563 -46.73976562 152.12484375 -46 152 C-43.1875 154.125 -43.1875 154.125 -41 157 C-40.8125 159.4375 -40.8125 159.4375 -42 162 C-43.00126663 162.93799979 -44.02447386 163.85284884 -45.0625 164.75 C-46.87489171 166.45290312 -47.90211849 167.42065127 -48.32202148 169.90600586 C-48.29696533 170.60604736 -48.27190918 171.30608887 -48.24609375 172.02734375 C-48.2195874 172.82221191 -48.19308105 173.61708008 -48.16577148 174.43603516 C-47.8767432 178.90639598 -47.45372193 183.35626098 -47 187.8125 C-46.82711733 189.76281747 -46.65652316 191.71333922 -46.48828125 193.6640625 C-46.22404526 196.70251167 -45.90362253 199.68841054 -45.48046875 202.7109375 C-44.98285216 207.76672205 -45.25812106 210.01770857 -48.38671875 214.16015625 C-51.06534317 217.05102018 -53.86603897 219.60953123 -57 222 C-57.66 222 -58.32 222 -59 222 C-59.24524162 221.21003632 -59.24524162 221.21003632 -59.49543762 220.40411377 C-72.23895635 169.55547126 -72.23895635 169.55547126 -99 126 C-99.88856689 126.93569824 -100.77713379 127.87139648 -101.69262695 128.83544922 C-119.79226367 147.8078064 -137.256465 164.76193408 -160 178 C-161.91812909 179.14860299 -163.83489105 180.29949345 -165.75 181.453125 C-167.16655112 182.30227612 -168.58317076 183.15131302 -170 184 C-169.94875977 185.31194336 -169.89751953 186.62388672 -169.84472656 187.97558594 C-169.66006582 192.84283662 -169.502464 197.71065254 -169.35302734 202.57910156 C-169.28456692 204.68612534 -169.20876812 206.79292398 -169.12548828 208.89941406 C-169.00704987 211.92744178 -168.91502551 214.95529847 -168.828125 217.984375 C-168.78560608 218.92617615 -168.74308716 219.86797729 -168.69927979 220.83831787 C-168.5476354 227.4092237 -168.5476354 227.4092237 -171.01074219 230.62597656 C-171.9954248 231.30611816 -171.9954248 231.30611816 -173 232 C-177.1076457 230.63078477 -177.49358687 228.77325345 -179.50390625 224.98828125 C-179.82785873 224.38243698 -180.15181122 223.77659271 -180.48558044 223.15238953 C-181.16997571 221.86775466 -181.84971589 220.5806306 -182.52514648 219.29125977 C-183.55221212 217.33212421 -184.59404686 215.38145925 -185.63867188 213.43164062 C-188.49713063 208.04663671 -191.21079782 202.85461487 -193 197 C-193.763125 197.350625 -194.52625 197.70125 -195.3125 198.0625 C-198 199 -198 199 -201 198 C-200.34 196.02 -199.68 194.04 -199 192 C-199.60884033 191.67314209 -200.21768066 191.34628418 -200.8449707 191.00952148 C-223.17181175 178.99809919 -223.17181175 178.99809919 -232 173 C-230.58215701 169.57354611 -229.29320878 167.76110337 -226 166 C-222.85293264 165.76827254 -219.77723718 166.07293498 -216.640625 166.36328125 C-215.73624695 166.43411423 -214.8318689 166.5049472 -213.90008545 166.57792664 C-211.01523531 166.80742672 -208.13288842 167.05965296 -205.25 167.3125 C-203.29309072 167.47220477 -201.33605974 167.63042576 -199.37890625 167.78710938 C-194.58435609 168.17421073 -189.79192514 168.5817025 -185 169 C-184.41484619 168.01362549 -183.82969238 167.02725098 -183.22680664 166.01098633 C-179.12610602 159.12162776 -175.02647993 152.26670836 -170.4375 145.6875 C-170.02048828 145.07583984 -169.60347656 144.46417969 -169.17382812 143.83398438 C-167.81306522 141.86526443 -166.41694128 139.92867919 -165 138 C-164.22003662 136.93313965 -164.22003662 136.93313965 -163.42431641 135.84472656 C-156.8906548 127.29783717 -149.13742389 119.91735967 -141.5 112.375 C-140.09067838 110.97573107 -138.68182047 109.57599494 -137.2734375 108.17578125 C-133.85427776 104.77844702 -130.42891464 101.38748723 -127 98 C-150.84011361 78.80606694 -181.34988882 71.13823908 -210.20678711 62.42578125 C-210.9188179 62.20875046 -211.63084869 61.99171967 -212.36445618 61.76811218 C-214.28518705 61.18374086 -216.20819177 60.60685807 -218.13134766 60.03051758 C-221 59 -221 59 -223 57 C-221.40724401 54.96514825 -219.78381461 52.9798755 -218.125 51 C-217.46371094 50.14148437 -217.46371094 50.14148437 -216.7890625 49.265625 C-214.6455937 46.7649114 -213.08579752 45.20071961 -209.78125 44.58984375 C-207.15137726 44.56062294 -204.61667949 44.73659167 -202 45 C-201.08686035 45.06960937 -200.1737207 45.13921875 -199.23291016 45.2109375 C-196.40086794 45.43919312 -193.5766215 45.71267858 -190.75 46 C-187.95971446 46.27902855 -185.17031536 46.55185781 -182.37646484 46.79272461 C-180.4644096 46.95949417 -178.55560264 47.16329434 -176.6484375 47.37890625 C-172.76997408 46.82402284 -171.41544864 44.83233725 -168.875 41.9375 C-166.3671875 39.08984375 -166.3671875 39.08984375 -164 37 C-161.02818503 37.10747975 -160.05075953 37.96021551 -157.6875 39.8125 C-156 42 -156 42 -156.125 44.125 C-157 46 -157 46 -159 48 C-156.1232226 50.8767774 -147.78878294 50.27811991 -143.77734375 50.4140625 C-140.14160084 50.31966421 -139.07919249 50.05015194 -135.87890625 48.0234375 C-133.53604372 45.5703265 -133.53604372 45.5703265 -131.69140625 42.90625 C-131.13324219 42.2771875 -130.57507813 41.648125 -130 41 C-127.08073842 41.14815801 -126.01024825 41.99196759 -123.6875 43.8125 C-122 46 -122 46 -122.125 48.125 C-123 50 -123 50 -125 52 C-120.7688523 52.43364843 -116.53709417 52.86059854 -112.3046875 53.28173828 C-110.86928731 53.42547123 -109.43405921 53.5709349 -107.99902344 53.71826172 C-105.91906506 53.93147921 -103.83853728 54.13816187 -101.7578125 54.34375 C-100.5114502 54.46943359 -99.26508789 54.59511719 -97.98095703 54.72460938 C-96.66724121 54.81548828 -95.35352539 54.90636719 -94 55 C-93.19710541 55.0955014 -92.39421082 55.19100281 -91.56698608 55.28939819 C-87.89381257 55.56833406 -85.1413228 55.69008497 -81.92648315 53.74627686 C-79.85161036 51.90831385 -78.00394345 49.97317078 -76.1484375 47.9140625 C-75.09458359 46.81763931 -75.09458359 46.81763931 -74.0194397 45.69906616 C-71.7792886 43.36364758 -69.57512309 40.99811761 -67.375 38.625 C-57.05201116 27.579609 -47.38599199 18.19028541 -34 11 C-33.09797852 10.51354004 -32.19595703 10.02708008 -31.26660156 9.52587891 C-29.1789291 8.45369922 -27.07919791 7.45852214 -24.9375 6.5 C-24.25751953 6.1803125 -23.57753906 5.860625 -22.87695312 5.53125 C-15.59028375 2.17784511 -8.07791851 0 0 0 Z " fill="#5670FF" transform="translate(252,0)"/>
<path d="M0 0 C3.51103334 3.04289556 6.4215523 6.13232846 9 10 C9.33 5.38 9.66 0.76 10 -4 C17.59 -4 25.18 -4 33 -4 C33.06796835 8.30959047 33.12292698 20.61905485 33.15543652 32.92879105 C33.17104501 38.64563255 33.19219485 44.36233821 33.22631836 50.07910156 C33.2590841 55.60341464 33.27688918 61.12759762 33.28463173 66.65200043 C33.29014446 68.75216467 33.30090892 70.85232236 33.31719017 72.95243073 C33.43513837 88.80726107 33.35584208 103.49519486 22.21875 116 C9.68241218 127.91979661 -7.47317415 129.49783934 -23.92211914 129.28125 C-26.32649225 129.24981708 -28.7302062 129.24023323 -31.13476562 129.234375 C-32.69011205 129.22521149 -34.24545193 129.2148378 -35.80078125 129.203125 C-36.50616531 129.19887512 -37.21154938 129.19462524 -37.93830872 129.19024658 C-42.75137014 129.12206187 -47.16324918 128.60459385 -52 128 C-52 119.75 -52 111.5 -52 103 C-48.37 103.33 -44.74 103.66 -41 104 C-36.49955592 104.22421811 -32.005535 104.2744893 -27.5 104.3125 C-26.35402344 104.34150391 -25.20804688 104.37050781 -24.02734375 104.40039062 C-15.13133066 104.46617457 -7.19118735 103.23070691 0 97.6875 C4.80264237 91.23394932 5.42272496 85.78127051 5 78 C4.61070312 78.51949219 4.22140625 79.03898437 3.8203125 79.57421875 C-1.48785502 86.19108195 -7.65903602 90.19311219 -16 92 C-29.28610909 93.16207372 -41.48207337 92.44005844 -52.16015625 83.68359375 C-61.24788756 75.36764429 -67.22149329 64.88768473 -68.20483398 52.3984375 C-68.80341858 34.99836019 -68.0848264 19.2822826 -55.89453125 5.64453125 C-40.86728585 -8.53161353 -17.37542729 -12.1216551 0 0 Z M-35.58984375 26.8046875 C-40.13501234 33.88054553 -40.04047608 42.87359396 -39 51 C-36.66562144 58.71695392 -32.82691145 62.85692959 -25.875 66.75 C-20.41783905 68.90195236 -14.33797318 68.96353865 -8.7265625 67.34375 C-2.28481873 64.48075277 2.13441018 59.37082023 5 53 C7.00952079 44.56001267 6.85599332 35.85804698 3 28 C-0.63665857 22.10208577 -5.35245475 18.86307653 -12 17 C-21.87953019 15.34488009 -29.28585961 19.44258782 -35.58984375 26.8046875 Z " fill="#5670FF" transform="translate(633,73)"/>
<path d="M0 0 C8.86249048 8.01556306 14.29799551 18.90106104 15.22119141 30.86694336 C15.90802661 49.69061207 15.12829669 66.1599644 1.8125 80.75 C-7.81559287 89.74047083 -18.91588715 92.49970014 -31.73046875 92.24609375 C-41.46510531 91.51337917 -50.99305296 88.00694704 -58 81 C-58.33 94.86 -58.66 108.72 -59 123 C-68.57 123 -78.14 123 -88 123 C-88 80.1 -88 37.2 -88 -7 C-80.41 -7 -72.82 -7 -65 -7 C-64.67 -1.06 -64.34 4.88 -64 11 C-63.175 9.659375 -62.35 8.31875 -61.5 6.9375 C-55.24347587 -2.35957792 -47.84623288 -6.9967065 -37.0625 -9.75 C-22.99902539 -10.89803874 -11.30801583 -8.94203098 0 0 Z M-55 22 C-60.86903703 30.5240776 -61.04295933 39.97374796 -60 50 C-58.44698115 56.06813705 -55.69651634 59.86758061 -50.625 63.5 C-43.52895197 67.62669679 -37.01676275 69.08973541 -29 67 C-22.14240521 63.7104975 -17.77185045 59.42962613 -14.921875 52.3046875 C-13.86930749 48.53150059 -13.65532794 45.01092476 -13.6875 41.125 C-13.69313965 40.41609619 -13.6987793 39.70719238 -13.70458984 38.97680664 C-13.88697361 31.1315961 -15.76161641 25.38180629 -21.1328125 19.54296875 C-25.59505831 15.85554805 -30.84977912 14.30717441 -36.5 13.5 C-43.29599709 14.47085673 -50.15185857 17.00926617 -55 22 Z " fill="#5670FF" transform="translate(1268,76)"/>
<path d="M0 0 C9.57 0 19.14 0 29 0 C29.33 13.86 29.66 27.72 30 42 C31.65 39.69 33.3 37.38 35 35 C42.42707883 28.63601284 50.91436819 27.52577565 60.42578125 27.6875 C67.88107008 28.33932853 74.93713229 30.82957963 80.4375 36.0390625 C91.05049653 49.35837314 91.16509649 65.69412712 91.09765625 81.8828125 C91.0962413 83.17822968 91.09482635 84.47364685 91.09336853 85.80831909 C91.08958811 89.21783451 91.0797972 92.62730592 91.06866455 96.0368042 C91.05835308 99.52973831 91.05379507 103.02267988 91.04882812 106.515625 C91.03870333 113.3437886 91.01912057 120.17183206 91 127 C81.43 127 71.86 127 62 127 C61.96261719 122.74996094 61.92523437 118.49992187 61.88671875 114.12109375 C61.84857622 110.71891495 61.80750372 107.31679941 61.7644577 103.91468048 C61.71991141 100.33075621 61.68045319 96.74694574 61.65356445 93.1628418 C61.62743513 89.70668193 61.5869665 86.2509529 61.53681374 82.79506111 C61.5121637 80.84381509 61.50212513 78.89240204 61.49235535 76.94102478 C61.38751258 70.5812483 61.24532518 65.55194406 58 60 C53.11509591 55.47252792 50.03230692 54.6954999 43.5390625 54.7890625 C40.0308365 55.08051512 37.86310463 55.95492526 35 58 C31.1480247 62.99715715 29.88605906 66.62140393 29.79467773 72.84838867 C29.77473251 74.0494072 29.75478729 75.25042572 29.73423767 76.48783875 C29.71752518 77.78478165 29.70081268 79.08172455 29.68359375 80.41796875 C29.66301707 81.7589023 29.64202041 83.09982946 29.62062073 84.44075012 C29.56547373 87.96701889 29.51603206 91.49334548 29.46777344 95.01971436 C29.4175045 98.61931484 29.36189866 102.21883259 29.30664062 105.81835938 C29.19864478 112.87884277 29.0995648 119.93937248 29 127 C19.43 127 9.86 127 0 127 C0 85.09 0 43.18 0 0 Z " fill="#5670FF" transform="translate(689,38)"/>
<path d="M0 0 C10.98416209 8.19686219 16.85008027 19.14620121 19.75 32.4375 C20.91536728 49.0439837 18.81181824 64.21377097 7.8125 77.25 C-1.54187783 87.11461663 -14.49469933 92.69681161 -28.06640625 93.203125 C-46.13883733 93.51986866 -60.40902329 90.05308861 -73.84375 77.27734375 C-83.4544742 67.12688685 -86.34075256 53.33526821 -86.15234375 39.70703125 C-85.34299372 25.32550387 -80.41061933 12.90198858 -69.9375 2.8125 C-51.08495139 -13.11520127 -20.13042739 -13.90222886 0 0 Z M-50.875 22.625 C-56.15694302 29.25500272 -57.62731064 36.84599499 -57.34375 45.19921875 C-56.41382211 52.77601755 -53.83120061 59.49834159 -48.0390625 64.625 C-41.65488029 68.93004241 -34.95629859 69.51616708 -27.46875 68.49609375 C-20.27135065 67.04978091 -16.07733633 62.8791895 -12 57 C-7.9126375 49.12750955 -7.97052468 40.28435037 -10.0625 31.8125 C-12.27090462 25.27062217 -16.32677588 20.62490093 -22.1875 17.0625 C-32.75381671 13.07078035 -42.82271482 14.26821664 -50.875 22.625 Z " fill="#5670FF" transform="translate(1747,75)"/>
<path d="M0 0 C8.79720592 7.19771394 13.07688664 16.03313145 14.75 27.25 C15.01762315 32.42982098 14.98379385 37.60082402 14.9453125 42.78515625 C14.94157537 44.27444772 14.93873171 45.76374168 14.93673706 47.2530365 C14.92915567 51.14430713 14.90955544 55.03542489 14.8873291 58.92663574 C14.86675127 62.90875176 14.85770999 66.89089284 14.84765625 70.87304688 C14.82630347 78.66544185 14.79116721 86.4576799 14.75 94.25 C5.51 94.25 -3.73 94.25 -13.25 94.25 C-13.29898437 90.228125 -13.34796875 86.20625 -13.3984375 82.0625 C-13.44303395 78.83790786 -13.48952619 75.61335534 -13.53729248 72.3888092 C-13.58705319 68.99476037 -13.63354163 65.60074173 -13.671875 62.20654297 C-13.71770088 58.30418307 -13.77566751 54.40216032 -13.8359375 50.5 C-13.84748871 49.29448486 -13.85903992 48.08896973 -13.87094116 46.84692383 C-13.96580045 34.47345048 -13.96580045 34.47345048 -20.25 24.25 C-24.74198128 21.47554097 -30.13852914 21.59363135 -35.25 22.25 C-39.85858262 24.46894719 -43.3520613 27.43937353 -45.25 32.25 C-45.8694212 36.9565632 -45.85643873 41.65899757 -45.859375 46.3984375 C-45.87436909 47.77993701 -45.89109883 49.16141867 -45.90948486 50.5428772 C-45.95303375 54.16287087 -45.97312935 57.78262279 -45.98822021 61.40283203 C-46.00783669 65.10333323 -46.04958695 68.80358151 -46.08984375 72.50390625 C-46.16708902 79.75276528 -46.20758057 87.0005189 -46.25 94.25 C-55.82 94.25 -65.39 94.25 -75.25 94.25 C-75.25 62.57 -75.25 30.89 -75.25 -1.75 C-67.66 -1.75 -60.07 -1.75 -52.25 -1.75 C-51.755 6.17 -51.755 6.17 -51.25 14.25 C-50.755 13.074375 -50.26 11.89875 -49.75 10.6875 C-46.06718087 3.34788874 -39.90517292 -1.15012995 -32.25 -3.75 C-21.23376376 -6.41946339 -9.95747361 -5.36171656 0 0 Z " fill="#5670FF" transform="translate(1046.25,70.75)"/>
<path d="M0 0 C9.07557241 7.46213732 13.16707141 15.70275784 14.8125 27.3125 C14.89632378 29.58845229 14.93032254 31.86655163 14.92602539 34.14404297 C14.92617142 34.79840836 14.92631744 35.45277374 14.9264679 36.12696838 C14.92577647 38.26957626 14.91802052 40.41209499 14.91015625 42.5546875 C14.90828933 44.04826815 14.90686672 45.54184942 14.90586853 47.03543091 C14.90206494 50.95135207 14.89225324 54.86723568 14.88116455 58.78314209 C14.87090388 62.78511039 14.86636096 66.78708481 14.86132812 70.7890625 C14.85062889 78.63022742 14.83304973 86.4713547 14.8125 94.3125 C5.5725 94.3125 -3.6675 94.3125 -13.1875 94.3125 C-13.22488281 90.23003906 -13.26226563 86.14757812 -13.30078125 81.94140625 C-13.33894737 78.66498423 -13.38001962 75.388627 -13.4230423 72.11226654 C-13.4675128 68.66544356 -13.5069857 65.21873679 -13.53393555 61.77172852 C-13.56516967 57.80720347 -13.61995104 53.84316404 -13.67578125 49.87890625 C-13.68217117 48.65667862 -13.6885611 47.43445099 -13.69514465 46.17518616 C-13.87430224 34.48657629 -13.87430224 34.48657629 -19.6875 24.8125 C-24.66769201 21.8243848 -29.51865007 21.66791115 -35.1875 22.3125 C-40.32058791 24.92570839 -43.3672908 27.85187241 -45.1875 33.3125 C-45.30441241 35.29029184 -45.36422996 37.27164755 -45.39282227 39.25268555 C-45.41276749 40.47372482 -45.43271271 41.6947641 -45.45326233 42.95280457 C-45.46997482 44.27162125 -45.48668732 45.59043793 -45.50390625 46.94921875 C-45.5244826 48.31257244 -45.54547925 49.67591985 -45.56687927 51.03926086 C-45.6220297 54.62471422 -45.67146987 58.21022448 -45.71972656 61.79577637 C-45.76999299 65.45569911 -45.8256001 69.11554042 -45.88085938 72.77539062 C-45.98885984 79.95436462 -46.08793717 87.13338414 -46.1875 94.3125 C-55.7575 94.3125 -65.3275 94.3125 -75.1875 94.3125 C-75.1875 62.6325 -75.1875 30.9525 -75.1875 -1.6875 C-67.5975 -1.6875 -60.0075 -1.6875 -52.1875 -1.6875 C-51.6925 6.2325 -51.6925 6.2325 -51.1875 14.3125 C-50.3625 12.78625 -49.5375 11.26 -48.6875 9.6875 C-44.1418463 2.17867485 -38.54252737 -2.01689293 -30.0234375 -4.21875 C-19.40361512 -5.97409254 -9.52474075 -5.04250981 0 0 Z " fill="#5670FF" transform="translate(1860.1875,70.6875)"/>
<path d="M0 0 C7.04420609 7.44623274 9.45688661 17.09127038 9.43774414 27.1027832 C9.43789017 27.74724899 9.43803619 28.39171478 9.43818665 29.05570984 C9.43749381 31.17128954 9.42973106 33.28677956 9.421875 35.40234375 C9.42000858 36.87493339 9.41858574 38.34752365 9.41758728 39.82011414 C9.41377971 43.68508638 9.40396454 47.5500207 9.3928833 51.41497803 C9.38263125 55.36323534 9.37808154 59.31149882 9.37304688 63.25976562 C9.36234062 70.99871716 9.34475816 78.73762967 9.32421875 86.4765625 C1.73421875 86.4765625 -5.85578125 86.4765625 -13.67578125 86.4765625 C-14.00578125 82.1865625 -14.33578125 77.8965625 -14.67578125 73.4765625 C-15.50078125 74.6934375 -16.32578125 75.9103125 -17.17578125 77.1640625 C-22.0963337 83.70550281 -27.77472729 86.60047542 -35.67578125 88.4765625 C-47.8030949 89.42845154 -58.5333243 88.52295634 -68.6328125 81.265625 C-75.01451722 75.67705757 -78.09990584 68.86964026 -78.67578125 60.4765625 C-78.75235853 52.02024324 -77.74919048 44.96468534 -71.94921875 38.57421875 C-60.72055693 27.99422465 -47.3678479 27.16249462 -32.61328125 27.3515625 C-31.2571681 27.36161619 -29.9010477 27.3707378 -28.54492188 27.37890625 C-25.25502025 27.40232192 -21.96549687 27.43511827 -18.67578125 27.4765625 C-19.04731249 25.86659379 -19.44909758 24.2635895 -19.86328125 22.6640625 C-20.19392578 21.32408203 -20.19392578 21.32408203 -20.53125 19.95703125 C-22.0790699 16.60254101 -23.2421836 15.853436 -26.67578125 14.4765625 C-29.83598877 14.09091891 -32.95323139 14.12707121 -36.1328125 14.18359375 C-37.48725716 14.18996101 -37.48725716 14.18996101 -38.86906433 14.19645691 C-41.74244475 14.21319939 -44.61511416 14.25084334 -47.48828125 14.2890625 C-49.44074505 14.30411507 -51.39321989 14.31780247 -53.34570312 14.33007812 C-58.12288764 14.36053191 -62.89854211 14.4192611 -67.67578125 14.4765625 C-67.67578125 6.5565625 -67.67578125 -1.3634375 -67.67578125 -9.5234375 C-46.99793773 -13.6590062 -16.61683648 -15.10621499 0 0 Z M-47.48828125 47.9765625 C-50.24564605 51.45954962 -49.96784259 55.24167301 -49.67578125 59.4765625 C-47.99953864 63.16429623 -46.10324531 65.33439746 -42.67578125 67.4765625 C-37.50866535 69.19893447 -32.56978367 69.13217872 -27.42578125 67.3515625 C-23.76123589 64.85300885 -20.55960621 61.99164463 -19.04296875 57.67578125 C-18.56840407 54.83344172 -18.58197489 52.10674801 -18.61328125 49.2265625 C-18.62230469 48.14890625 -18.63132812 47.07125 -18.640625 45.9609375 C-18.65222656 45.14109375 -18.66382813 44.32125 -18.67578125 43.4765625 C-22.05061538 43.38888695 -25.4251534 43.33594622 -28.80078125 43.2890625 C-29.75210937 43.26392578 -30.7034375 43.23878906 -31.68359375 43.21289062 C-38.03984613 43.14667966 -42.43076785 43.79103417 -47.48828125 47.9765625 Z " fill="#5670FF" transform="translate(1502.67578125,78.5234375)"/>
<path d="M0 0 C25.41 0 50.82 0 77 0 C77 8.25 77 16.5 77 25 C61.16 25 45.32 25 29 25 C29 33.91 29 42.82 29 52 C44.18 52 59.36 52 75 52 C75 60.25 75 68.5 75 77 C59.82 77 44.64 77 29 77 C29 93.83 29 110.66 29 128 C19.43 128 9.86 128 0 128 C0 85.76 0 43.52 0 0 Z " fill="#5671FF" transform="translate(362,37)"/>
<path d="M0 0 C4.72811164 4.24830327 7.54180622 9.27823095 8.97265625 15.47265625 C9.09312957 18.15490432 9.04390987 20.78496962 8.97265625 23.47265625 C4.91112459 23.70538313 0.85130382 23.84719936 -3.21484375 23.97265625 C-4.36533203 24.0396875 -5.51582031 24.10671875 -6.70117188 24.17578125 C-9.98940231 24.25203007 -12.82488131 24.23490279 -16.02734375 23.47265625 C-17.97417277 21.55847957 -18.93476113 19.90567651 -19.9934082 17.40039062 C-21.29666683 14.97051338 -22.49332867 14.44990802 -25.02734375 13.47265625 C-32.3609074 11.76332938 -37.98905261 13.1265592 -45.02734375 15.47265625 C-45.61778775 20.76694891 -45.61778775 20.76694891 -43.58984375 25.34765625 C-37.55224795 27.99830807 -31.20041334 28.58347541 -24.71484375 29.34765625 C-12.36613948 30.95459474 -0.65005099 34.36888602 7.41015625 44.41015625 C12.07431068 51.25780679 12.73113148 58.37447455 11.97265625 66.47265625 C10.10920471 74.38892485 5.85026196 80.42423304 -0.76953125 85.08984375 C-15.34060567 94.0139966 -33.02658564 93.95291915 -49.25 90.4453125 C-58.61739528 88.03323243 -65.81092736 83.6430217 -71.30859375 75.59765625 C-74.47980788 69.98007694 -74.33456923 66.4004014 -75.02734375 59.47265625 C-66.44734375 59.47265625 -57.86734375 59.47265625 -49.02734375 59.47265625 C-48.03734375 61.45265625 -47.04734375 63.43265625 -46.02734375 65.47265625 C-42.60569964 69.15750376 -37.85785167 69.93674884 -33.02734375 70.47265625 C-27.07690838 70.48089785 -20.84087479 70.27281233 -16.02734375 66.47265625 C-14.69641215 63.07295814 -14.69641215 63.07295814 -15.02734375 59.47265625 C-17.64302851 55.60144281 -20.64443244 54.69500152 -25.02734375 53.47265625 C-28.57782051 52.91070766 -32.14468154 52.5128404 -35.71484375 52.09765625 C-47.68336688 50.56556766 -59.75438365 48.57588151 -67.59375 38.44921875 C-72.59893925 30.7774472 -72.71327732 23.53677836 -72.02734375 14.47265625 C-70.42043514 7.29964853 -66.98065312 1.80233579 -61.02734375 -2.52734375 C-42.97107532 -13.08590818 -16.93524739 -12.75853898 0 0 Z " fill="#5670FF" transform="translate(1151.02734375,75.52734375)"/>
<path d="M0 0 C4.72811164 4.24830327 7.54180622 9.27823095 8.97265625 15.47265625 C9.09312957 18.15490432 9.04390987 20.78496962 8.97265625 23.47265625 C4.91112459 23.70538313 0.85130382 23.84719936 -3.21484375 23.97265625 C-4.36533203 24.0396875 -5.51582031 24.10671875 -6.70117188 24.17578125 C-9.98940231 24.25203007 -12.82488131 24.23490279 -16.02734375 23.47265625 C-17.97417277 21.55847957 -18.93476113 19.90567651 -19.9934082 17.40039062 C-21.29666683 14.97051338 -22.49332867 14.44990802 -25.02734375 13.47265625 C-31.10625568 12.055767 -36.15610023 12.44808952 -42.02734375 14.47265625 C-44.11718606 15.55940619 -44.11718606 15.55940619 -45.02734375 17.47265625 C-45.61067708 20.47265625 -45.61067708 20.47265625 -45.02734375 23.47265625 C-40.65411841 28.79658276 -30.94430258 28.62708153 -24.58984375 29.41015625 C-12.24928941 31.0235421 -0.16009718 34.30446552 7.7890625 44.640625 C12.65116017 52.16644614 13.06099654 60.22695568 11.5390625 68.9609375 C9.54381453 76.13639448 5.43047798 81.35667579 -0.90625 85.234375 C-17.70467005 93.91741315 -35.01381971 94.11109212 -53.02734375 89.47265625 C-61.63636731 86.40842752 -68.35005125 81.40485588 -72.40234375 73.09765625 C-74.47112376 68.43840387 -74.41356801 64.99663787 -75.02734375 59.47265625 C-66.44734375 59.47265625 -57.86734375 59.47265625 -49.02734375 59.47265625 C-48.03734375 61.45265625 -47.04734375 63.43265625 -46.02734375 65.47265625 C-40.28209004 69.99551555 -34.24842679 70.72553464 -27.02734375 70.47265625 C-22.30627367 69.56715086 -18.07466997 68.38386623 -15.02734375 64.47265625 C-14.86708976 60.9268694 -14.86708976 60.9268694 -16.02734375 57.47265625 C-19.51762244 54.84855833 -22.52745101 53.99126178 -26.81640625 53.4453125 C-27.92371094 53.29255859 -29.03101563 53.13980469 -30.171875 52.98242188 C-32.4686371 52.68727119 -34.76551011 52.39298208 -37.0625 52.09960938 C-49.257141 50.4149162 -60.48771686 47.47007969 -68.40234375 37.47265625 C-72.82010866 29.31678257 -73.28981307 20.6579086 -71.4453125 11.62109375 C-68.86571765 4.01187788 -63.62440159 -0.78380657 -56.828125 -4.83984375 C-39.59692935 -13.2543594 -15.35022042 -11.56442424 0 0 Z " fill="#5670FF" transform="translate(1965.02734375,75.52734375)"/>
<path d="M0 0 C8.91 0 17.82 0 27 0 C27 8.58 27 17.16 27 26 C36.24 26 45.48 26 55 26 C55 32.93 55 39.86 55 47 C45.76 47 36.52 47 27 47 C27.05110565 53.01513491 27.11411805 59.02770699 27.20751953 65.04199219 C27.23569066 67.08650395 27.25692435 69.13112384 27.27099609 71.17578125 C27.29247887 74.12035322 27.3391569 77.06363041 27.390625 80.0078125 C27.39185364 80.9174173 27.39308228 81.82702209 27.39434814 82.76419067 C27.52447763 88.44250192 28.24247248 91.66286761 32 96 C36.72754821 98.34321955 41.69029124 98.41335876 46.875 98.625 C49.55625 98.74875 52.2375 98.8725 55 99 C55 106.92 55 114.84 55 123 C18.29931587 123.61855086 18.29931587 123.61855086 8 114 C-2.61174964 102.29232659 -0.36528344 83.74449723 -0.1875 69.1875 C-0.17242364 67.03060832 -0.15874047 64.87370643 -0.14648438 62.71679688 C-0.11371809 57.47760866 -0.06209892 52.23891928 0 47 C-4.62 47 -9.24 47 -14 47 C-14 40.07 -14 33.14 -14 26 C-9.38 26 -4.76 26 0 26 C0 17.42 0 8.84 0 0 Z " fill="#5670FF" transform="translate(805,43)"/>
<path d="M0 0 C8.91 0 17.82 0 27 0 C27 8.58 27 17.16 27 26 C36.24 26 45.48 26 55 26 C55 32.93 55 39.86 55 47 C45.76 47 36.52 47 27 47 C27.07410652 52.87230325 27.15703327 58.74311321 27.26245117 64.61474609 C27.29563713 66.61076029 27.32368868 68.60686689 27.34643555 70.60302734 C27.38009793 73.4779384 27.43241977 76.35200743 27.48828125 79.2265625 C27.49467117 80.11429352 27.5010611 81.00202454 27.50764465 81.91665649 C27.62691707 86.98071255 28.11244545 90.65426006 31 95 C36.21364181 98.05268166 40.98621448 98.50765186 46.9375 98.6875 C50.9284375 98.8421875 50.9284375 98.8421875 55 99 C55 106.92 55 114.84 55 123 C20.22462825 123.79034936 20.22462825 123.79034936 9.75 115.3125 C-2.39577021 102.72716858 -0.27007994 83.37486296 -0.125 67.1875 C-0.11494637 65.22331187 -0.10582475 63.25911875 -0.09765625 61.29492188 C-0.07584026 56.52982221 -0.04144282 51.76496772 0 47 C-4.62 47 -9.24 47 -14 47 C-14 40.07 -14 33.14 -14 26 C-9.38 26 -4.76 26 0 26 C0 17.42 0 8.84 0 0 Z " fill="#5670FF" transform="translate(1537,43)"/>
<path d="M0 0 C12.87 0 25.74 0 39 0 C39 42.24 39 84.48 39 128 C29.76 128 20.52 128 11 128 C11 93.02 11 58.04 11 22 C7.04 22 3.08 22 -1 22 C-1.02683201 18.52078265 -1.0467567 15.04176961 -1.0625 11.5625 C-1.07087891 10.56927734 -1.07925781 9.57605469 -1.08789062 8.55273438 C-1.09111328 7.60849609 -1.09433594 6.66425781 -1.09765625 5.69140625 C-1.10289307 4.81685791 -1.10812988 3.94230957 -1.11352539 3.04125977 C-1 1 -1 1 0 0 Z " fill="#5671FF" transform="translate(449,37)"/>
<path d="M0 0 C9.57 0 19.14 0 29 0 C29 42.24 29 84.48 29 128 C19.1 128 9.2 128 -1 128 C-1.02254694 111.45852627 -1.04097912 94.9170656 -1.05181217 78.37558079 C-1.05697515 70.69561273 -1.06401789 63.01565487 -1.07543945 55.33569336 C-1.08538623 48.64422011 -1.09185341 41.95275424 -1.09408849 35.2612738 C-1.09539561 31.71604399 -1.09848153 28.17083532 -1.10573006 24.62561226 C-1.1137438 20.67431355 -1.11399114 16.7230358 -1.11352539 12.77172852 C-1.11712067 11.58778 -1.12071594 10.40383148 -1.12442017 9.18400574 C-1.1230455 8.11403351 -1.12167084 7.04406128 -1.12025452 5.94166565 C-1.12117631 5.00604577 -1.1220981 4.07042589 -1.12304783 3.1064539 C-1 1 -1 1 0 0 Z " fill="#5670FF" transform="translate(916,37)"/>
<path d="M0 0 C0 8.25 0 16.5 0 25 C-2.31 25.0825 -4.62 25.165 -7 25.25 C-13.24785258 25.56997089 -17.6474461 26.74648685 -23 30 C-23.66 30 -24.32 30 -25 30 C-29.5547073 38.40869039 -30.45969135 45.3532705 -30.51171875 54.8125 C-30.52966995 56.02196289 -30.54762115 57.23142578 -30.56611633 58.47753906 C-30.62004513 62.31832454 -30.65406014 66.15898695 -30.6875 70 C-30.72068834 72.61329831 -30.75517939 75.22658041 -30.79101562 77.83984375 C-30.87819962 84.22657854 -30.93842091 90.61276229 -31 97 C-40.57 97 -50.14 97 -60 97 C-60 65.32 -60 33.64 -60 1 C-52.41 1 -44.82 1 -37 1 C-36.67 7.93 -36.34 14.86 -36 22 C-35.2575 20.453125 -34.515 18.90625 -33.75 17.3125 C-29.44334197 8.79515404 -24.59199791 4.25830685 -15.75 0.6875 C-10.58114826 -0.26012282 -5.25499927 0 0 0 Z " fill="#5670FF" transform="translate(1419,68)"/>
<path d="M0 0 C13.86 0 27.72 0 42 0 C42 31.68 42 63.36 42 96 C32.43 96 22.86 96 13 96 C13 71.25 13 46.5 13 21 C8.71 21 4.42 21 0 21 C0 14.07 0 7.14 0 0 Z " fill="#5670FF" transform="translate(1601,69)"/>
<path d="M0 0 C13.86 0 27.72 0 42 0 C42 31.68 42 63.36 42 96 C32.43 96 22.86 96 13 96 C13 71.25 13 46.5 13 21 C8.71 21 4.42 21 0 21 C0 14.07 0 7.14 0 0 Z " fill="#5770FF" transform="translate(1293,69)"/>
<path d="M0 0 C13.53 0 27.06 0 41 0 C41 31.68 41 63.36 41 96 C31.43 96 21.86 96 12 96 C12 71.25 12 46.5 12 21 C8.04 21 4.08 21 0 21 C0 14.07 0 7.14 0 0 Z " fill="#5770FF" transform="translate(505,69)"/>
<path d="M0 0 C4.00438234 3.20350587 6.00576216 7.02901974 6.84765625 12.08984375 C7.11014394 18.03576065 5.3220091 21.95714131 1.4375 26.3125 C-3.48879248 29.14249781 -8.43277937 29.49687063 -14.0078125 28.59375 C-18.06412838 27.46922678 -20.12729622 26.40997416 -23 23.25 C-25.60904758 17.59706359 -25.99324851 12.79267335 -24.30078125 6.86328125 C-23.00090944 3.83870147 -21.02940652 2.03586378 -18.5 0 C-12.59322946 -1.96892351 -5.94725134 -1.69921467 0 0 Z " fill="#5670FF" transform="translate(1634.5,32)"/>
<path d="M0 0 C3.93833751 3.93833751 5.52683813 7.34244525 5.75 12.875 C5.5427284 18.23702606 3.88722163 21.67947878 0.3125 25.6875 C-4.61379248 28.51749781 -9.55777937 28.87187063 -15.1328125 27.96875 C-18.98746454 26.90013359 -21.26610038 25.71639232 -24.1875 22.9375 C-26.25660208 17.80972528 -26.44057755 12.8342263 -25.625 7.375 C-20.43486832 -2.62342806 -10.24128969 -4.59092297 0 0 Z " fill="#5670FF" transform="translate(1327.625,32.625)"/>
<path d="M0 0 C4.64990438 2.16461066 6.71605707 4.48387489 9 9 C9.81557755 14.4592263 9.63160208 19.43472528 7.5625 24.5625 C3.38716985 28.5341555 -0.87946524 29.8451464 -6.59765625 30.12890625 C-12.66068849 29.82712636 -15.91182927 28.4969878 -20 24 C-22.62352828 19.70695373 -22.54428615 14.88993587 -22 10 C-20.74151394 6.29445771 -19.3821094 4.3821094 -16.625 1.625 C-11.12827652 -0.83904846 -5.9271669 -0.74655156 0 0 Z " fill="#5670FF" transform="translate(535,31)"/>
</svg>
